<svg width="129" height="39" viewBox="0 0 129 39" fill="none" xmlns="http://www.w3.org/2000/svg">
<path d="M0.114453 38H14.1645C22.2645 38 28.7145 34.6 28.7145 27C28.7145 22.05 25.8645 19.25 22.1145 18.25V18.05C25.1145 16.9 26.9645 13.3 26.9645 10C26.9645 2.85 20.8145 0.749997 13.1145 0.749997H0.114453V38ZM9.06445 15.55V7.6H12.7645C16.5145 7.6 18.2645 8.7 18.2645 11.35C18.2645 13.9 16.5645 15.55 12.7645 15.55H9.06445ZM9.06445 31.15V22.1H13.5145C17.8645 22.1 20.0145 23.35 20.0145 26.4C20.0145 29.6 17.8145 31.15 13.5145 31.15H9.06445ZM49.6301 38.7C54.8301 38.7 59.4301 36.65 62.0301 34.15V16.75H48.1801V24.05H54.0801V30.05C53.2801 30.65 51.8801 31 50.5801 31C43.6301 31 40.3301 26.7 40.3301 19.3C40.3301 12.05 44.2801 7.75 49.7801 7.75C52.8801 7.75 54.8301 9 56.6801 10.65L61.3801 4.95C58.8301 2.4 54.9301 0.0999992 49.4801 0.0999992C39.5301 0.0999992 31.1801 7.2 31.1801 19.6C31.1801 32.2 39.3301 38.7 49.6301 38.7ZM83.3 38.7C88.15 38.7 92.3 36.85 95.45 33.2L90.75 27.6C89 29.5 86.65 31 83.65 31C78.4 31 75 26.7 75 19.3C75 12.05 78.95 7.75 83.75 7.75C86.4 7.75 88.35 8.95 90.25 10.65L94.9 4.95C92.35 2.35 88.45 0.0999992 83.6 0.0999992C74.15 0.0999992 65.85 7.2 65.85 19.6C65.85 32.2 73.85 38.7 83.3 38.7ZM98.8996 38H107.85V24.9H112.55C120.5 24.9 127.1 21.25 127.1 12.5C127.1 3.5 120.5 0.749997 112.55 0.749997H98.8996V38ZM107.85 17.85V7.85H111.85C116.1 7.85 118.4 9 118.4 12.5C118.4 16 116.1 17.85 111.85 17.85H107.85ZM119 38H129L117 16.75L110.95 22.6L119 38Z" fill="black"/>
</svg>
